{
	"asset":{
		"generator":"Khronos glTF Blender I/O v4.3.47",
		"version":"2.0"
	},
	"scene":0,
	"scenes":[
		{
			"name":"Scene",
			"nodes":[
				0,
				1,
				2,
				3,
				4,
				5
			]
		}
	],
	"nodes":[
		{
			"mesh":0,
			"name":"Tree"
		},
		{
			"mesh":1,
			"name":"Stione"
		},
		{
			"mesh":2,
			"name":"SmallTree"
		},
		{
			"mesh":3,
			"name":"SmallStone"
		},
		{
			"mesh":4,
			"name":"Bush"
		},
		{
			"mesh":5,
			"name":"SmallBush"
		}
	],
	"materials":[
		{
			"doubleSided":true,
			"name":"\u6750\u8d28.017",
			"pbrMetallicRoughness":{
				"baseColorFactor":[
					0.05739182233810425,
					0.19491936266422272,
					0.01896940916776657,
					1
				],
				"metallicFactor":0,
				"roughnessFactor":0.5
			}
		},
		{
			"doubleSided":true,
			"name":"\u6750\u8d28.018",
			"pbrMetallicRoughness":{
				"baseColorFactor":[
					0.1550992727279663,
					0.05167406424880028,
					0.008279839530587196,
					1
				],
				"metallicFactor":0,
				"roughnessFactor":0.5
			}
		}
	],
	"meshes":[
		{
			"name":"Cylinder.012",
			"primitives":[
				{
					"attributes":{
						"POSITION":0,
						"NORMAL":1,
						"TEXCOORD_0":2
					},
					"indices":3,
					"material":0
				},
				{
					"attributes":{
						"POSITION":4,
						"NORMAL":5,
						"TEXCOORD_0":6
					},
					"indices":7,
					"material":1
				}
			]
		},
		{
			"name":"\u67f1\u4f53",
			"primitives":[
				{
					"attributes":{
						"POSITION":8,
						"NORMAL":9,
						"TEXCOORD_0":10
					},
					"indices":11
				}
			]
		},
		{
			"name":"Cylinder.001",
			"primitives":[
				{
					"attributes":{
						"POSITION":12,
						"NORMAL":13,
						"TEXCOORD_0":14
					},
					"indices":15,
					"material":0
				},
				{
					"attributes":{
						"POSITION":16,
						"NORMAL":17,
						"TEXCOORD_0":18
					},
					"indices":19,
					"material":1
				}
			]
		},
		{
			"name":"\u67f1\u4f53.001",
			"primitives":[
				{
					"attributes":{
						"POSITION":20,
						"NORMAL":21,
						"TEXCOORD_0":22
					},
					"indices":23
				}
			]
		},
		{
			"name":"\u67f1\u4f53.002",
			"primitives":[
				{
					"attributes":{
						"POSITION":24,
						"NORMAL":25,
						"TEXCOORD_0":26
					},
					"indices":27
				}
			]
		},
		{
			"name":"\u67f1\u4f53.003",
			"primitives":[
				{
					"attributes":{
						"POSITION":28,
						"NORMAL":29,
						"TEXCOORD_0":30
					},
					"indices":27
				}
			]
		}
	],
	"accessors":[
		{
			"bufferView":0,
			"componentType":5126,
			"count":400,
			"max":[
				4.506572723388672,
				8.891275405883789,
				4.669430255889893
			],
			"min":[
				-4.616443634033203,
				-4.633828163146973,
				-4.572458267211914
			],
			"type":"VEC3"
		},
		{
			"bufferView":1,
			"componentType":5126,
			"count":400,
			"type":"VEC3"
		},
		{
			"bufferView":2,
			"componentType":5126,
			"count":400,
			"type":"VEC2"
		},
		{
			"bufferView":3,
			"componentType":5123,
			"count":576,
			"type":"SCALAR"
		},
		{
			"bufferView":4,
			"componentType":5126,
			"count":224,
			"max":[
				1.3894691467285156,
				7.5164055824279785,
				1.3108779191970825
			],
			"min":[
				-1.5109748840332031,
				-9.621404647827148,
				-1.5572632551193237
			],
			"type":"VEC3"
		},
		{
			"bufferView":5,
			"componentType":5126,
			"count":224,
			"type":"VEC3"
		},
		{
			"bufferView":6,
			"componentType":5126,
			"count":224,
			"type":"VEC2"
		},
		{
			"bufferView":7,
			"componentType":5123,
			"count":330,
			"type":"SCALAR"
		},
		{
			"bufferView":8,
			"componentType":5126,
			"count":190,
			"max":[
				10.236427307128906,
				3.744863986968994,
				10.310600280761719
			],
			"min":[
				-10.093160629272461,
				-5.482081890106201,
				-10.018988609313965
			],
			"type":"VEC3"
		},
		{
			"bufferView":9,
			"componentType":5126,
			"count":190,
			"type":"VEC3"
		},
		{
			"bufferView":10,
			"componentType":5126,
			"count":190,
			"type":"VEC2"
		},
		{
			"bufferView":11,
			"componentType":5123,
			"count":330,
			"type":"SCALAR"
		},
		{
			"bufferView":12,
			"componentType":5126,
			"count":400,
			"max":[
				3.1995773315429688,
				7.641861438751221,
				3.212912082672119
			],
			"min":[
				-3.3740463256835938,
				-4.354391574859619,
				-3.3821990489959717
			],
			"type":"VEC3"
		},
		{
			"bufferView":13,
			"componentType":5126,
			"count":400,
			"type":"VEC3"
		},
		{
			"bufferView":14,
			"componentType":5126,
			"count":400,
			"type":"VEC2"
		},
		{
			"bufferView":15,
			"componentType":5123,
			"count":576,
			"type":"SCALAR"
		},
		{
			"bufferView":16,
			"componentType":5126,
			"count":224,
			"max":[
				1.0828056335449219,
				6.427498817443848,
				1.2196743488311768
			],
			"min":[
				-0.9631462097167969,
				-5.483373641967773,
				-0.974850058555603
			],
			"type":"VEC3"
		},
		{
			"bufferView":17,
			"componentType":5126,
			"count":224,
			"type":"VEC3"
		},
		{
			"bufferView":18,
			"componentType":5126,
			"count":224,
			"type":"VEC2"
		},
		{
			"bufferView":19,
			"componentType":5123,
			"count":330,
			"type":"SCALAR"
		},
		{
			"bufferView":20,
			"componentType":5126,
			"count":200,
			"max":[
				5.284971714019775,
				2.109494209289551,
				5.773326396942139
			],
			"min":[
				-5.812734127044678,
				-2.9487833976745605,
				-5.324379920959473
			],
			"type":"VEC3"
		},
		{
			"bufferView":21,
			"componentType":5126,
			"count":200,
			"type":"VEC3"
		},
		{
			"bufferView":22,
			"componentType":5126,
			"count":200,
			"type":"VEC2"
		},
		{
			"bufferView":23,
			"componentType":5123,
			"count":342,
			"type":"SCALAR"
		},
		{
			"bufferView":24,
			"componentType":5126,
			"count":156,
			"max":[
				2.2260303497314453,
				1.262037992477417,
				2.271696090698242
			],
			"min":[
				-2.2260379791259766,
				-0.7974170446395874,
				-2.271696090698242
			],
			"type":"VEC3"
		},
		{
			"bufferView":25,
			"componentType":5126,
			"count":156,
			"type":"VEC3"
		},
		{
			"bufferView":26,
			"componentType":5126,
			"count":156,
			"type":"VEC2"
		},
		{
			"bufferView":27,
			"componentType":5123,
			"count":204,
			"type":"SCALAR"
		},
		{
			"bufferView":28,
			"componentType":5126,
			"count":156,
			"max":[
				1.2016525268554688,
				0.6812732219696045,
				1.226306438446045
			],
			"min":[
				-1.2016611099243164,
				-0.4304612874984741,
				-1.226306438446045
			],
			"type":"VEC3"
		},
		{
			"bufferView":29,
			"componentType":5126,
			"count":156,
			"type":"VEC3"
		},
		{
			"bufferView":30,
			"componentType":5126,
			"count":156,
			"type":"VEC2"
		}
	],
	"bufferViews":[
		{
			"buffer":0,
			"byteLength":4800,
			"byteOffset":0,
			"target":34962
		},
		{
			"buffer":0,
			"byteLength":4800,
			"byteOffset":4800,
			"target":34962
		},
		{
			"buffer":0,
			"byteLength":3200,
			"byteOffset":9600,
			"target":34962
		},
		{
			"buffer":0,
			"byteLength":1152,
			"byteOffset":12800,
			"target":34963
		},
		{
			"buffer":0,
			"byteLength":2688,
			"byteOffset":13952,
			"target":34962
		},
		{
			"buffer":0,
			"byteLength":2688,
			"byteOffset":16640,
			"target":34962
		},
		{
			"buffer":0,
			"byteLength":1792,
			"byteOffset":19328,
			"target":34962
		},
		{
			"buffer":0,
			"byteLength":660,
			"byteOffset":21120,
			"target":34963
		},
		{
			"buffer":0,
			"byteLength":2280,
			"byteOffset":21780,
			"target":34962
		},
		{
			"buffer":0,
			"byteLength":2280,
			"byteOffset":24060,
			"target":34962
		},
		{
			"buffer":0,
			"byteLength":1520,
			"byteOffset":26340,
			"target":34962
		},
		{
			"buffer":0,
			"byteLength":660,
			"byteOffset":27860,
			"target":34963
		},
		{
			"buffer":0,
			"byteLength":4800,
			"byteOffset":28520,
			"target":34962
		},
		{
			"buffer":0,
			"byteLength":4800,
			"byteOffset":33320,
			"target":34962
		},
		{
			"buffer":0,
			"byteLength":3200,
			"byteOffset":38120,
			"target":34962
		},
		{
			"buffer":0,
			"byteLength":1152,
			"byteOffset":41320,
			"target":34963
		},
		{
			"buffer":0,
			"byteLength":2688,
			"byteOffset":42472,
			"target":34962
		},
		{
			"buffer":0,
			"byteLength":2688,
			"byteOffset":45160,
			"target":34962
		},
		{
			"buffer":0,
			"byteLength":1792,
			"byteOffset":47848,
			"target":34962
		},
		{
			"buffer":0,
			"byteLength":660,
			"byteOffset":49640,
			"target":34963
		},
		{
			"buffer":0,
			"byteLength":2400,
			"byteOffset":50300,
			"target":34962
		},
		{
			"buffer":0,
			"byteLength":2400,
			"byteOffset":52700,
			"target":34962
		},
		{
			"buffer":0,
			"byteLength":1600,
			"byteOffset":55100,
			"target":34962
		},
		{
			"buffer":0,
			"byteLength":684,
			"byteOffset":56700,
			"target":34963
		},
		{
			"buffer":0,
			"byteLength":1872,
			"byteOffset":57384,
			"target":34962
		},
		{
			"buffer":0,
			"byteLength":1872,
			"byteOffset":59256,
			"target":34962
		},
		{
			"buffer":0,
			"byteLength":1248,
			"byteOffset":61128,
			"target":34962
		},
		{
			"buffer":0,
			"byteLength":408,
			"byteOffset":62376,
			"target":34963
		},
		{
			"buffer":0,
			"byteLength":1872,
			"byteOffset":62784,
			"target":34962
		},
		{
			"buffer":0,
			"byteLength":1872,
			"byteOffset":64656,
			"target":34962
		},
		{
			"buffer":0,
			"byteLength":1248,
			"byteOffset":66528,
			"target":34962
		}
	],
	"buffers":[
		{
			"byteLength":67776,
			"uri":"Decoration-84d196c28120d2ed843ba1c82a941750.bin"
		}
	]
}
