{
	"asset":{
		"generator":"Khronos glTF Blender I/O v4.3.47",
		"version":"2.0"
	},
	"extensionsUsed":[
		"KHR_materials_emissive_strength"
	],
	"scene":0,
	"scenes":[
		{
			"extras":{
				"sna_gaa_frame_range_tgt":{},
				"sdn":{},
				"sdn_history_item":[
					{
						"name":"2023-09-19 14:47:04"
					},
					{
						"name":"2023-09-19 14:46:15"
					},
					{
						"name":"2023-09-19 14:44:13"
					},
					{
						"name":"2023-09-19 14:40:55"
					},
					{
						"name":"2023-09-19 14:39:06"
					},
					{
						"name":"2023-09-19 14:30:39"
					},
					{
						"name":"2023-09-19 14:13:37"
					}
				],
				"sna_coll_choice":167,
				"sna_gaa_info_text":{},
				"sna_gpm_sc_preset":{
					"text":{}
				},
				"sna_gsm_tool":{
					"burn_meta":1
				},
				"sna_tool":{},
				"sna_gpm_cc_preset":{
					"text":{}
				},
				"sna_gpm_gn_preset":{
					"text":{}
				}
			},
			"name":"Scene",
			"nodes":[
				0
			]
		}
	],
	"nodes":[
		{
			"mesh":0,
			"name":"FX_BigBoom",
			"translation":[
				0.3090362548828125,
				0.01759624481201172,
				-0.07866000384092331
			]
		}
	],
	"materials":[
		{
			"emissiveFactor":[
				1,
				1,
				1
			],
			"extensions":{
				"KHR_materials_emissive_strength":{
					"emissiveStrength":5
				}
			},
			"name":"Mat_Boom_Rush",
			"pbrMetallicRoughness":{
				"baseColorFactor":[
					0,
					0,
					0,
					1
				]
			}
		}
	],
	"meshes":[
		{
			"name":"Curve_FX_BigBoom",
			"primitives":[
				{
					"attributes":{
						"POSITION":0,
						"NORMAL":1,
						"TEXCOORD_0":2,
						"TANGENT":3
					},
					"indices":4,
					"material":0
				}
			]
		}
	],
	"accessors":[
		{
			"bufferView":0,
			"componentType":5126,
			"count":2114,
			"max":[
				0.34758180379867554,
				0.17421604692935944,
				0.9294469356536865
			],
			"min":[
				0.3475813865661621,
				0.17421601712703705,
				0.9294466376304626
			],
			"type":"VEC3"
		},
		{
			"bufferView":1,
			"componentType":5126,
			"count":2114,
			"type":"VEC3"
		},
		{
			"bufferView":2,
			"componentType":5126,
			"count":2114,
			"type":"VEC2"
		},
		{
			"bufferView":3,
			"componentType":5126,
			"count":2114,
			"type":"VEC4"
		},
		{
			"bufferView":4,
			"componentType":5123,
			"count":11904,
			"type":"SCALAR"
		}
	],
	"bufferViews":[
		{
			"buffer":0,
			"byteLength":25368,
			"byteOffset":0,
			"target":34962
		},
		{
			"buffer":0,
			"byteLength":25368,
			"byteOffset":25368,
			"target":34962
		},
		{
			"buffer":0,
			"byteLength":16912,
			"byteOffset":50736,
			"target":34962
		},
		{
			"buffer":0,
			"byteLength":33824,
			"byteOffset":67648,
			"target":34962
		},
		{
			"buffer":0,
			"byteLength":23808,
			"byteOffset":101472,
			"target":34963
		}
	],
	"buffers":[
		{
			"byteLength":125280,
			"uri":"GSS_FX_EasyBigBoom-f5064519954c9f68c83d675127aaec9a.bin"
		}
	]
}
