{
	"asset":{
		"generator":"Khronos glTF Blender I/O v4.3.47",
		"version":"2.0"
	},
	"scene":0,
	"scenes":[
		{
			"name":"Scene",
			"nodes":[
				0,
				1,
				2,
				3,
				4,
				5,
				6,
				7,
				8,
				9,
				10,
				11,
				12
			]
		}
	],
	"nodes":[
		{
			"mesh":0,
			"name":"Fundation",
			"scale":[
				0.8800000548362732,
				0.8800000548362732,
				0.8800000548362732
			]
		},
		{
			"mesh":1,
			"name":"Ground",
			"translation":[
				-4.484025001525879,
				-2.928708553314209,
				0.9165090918540955
			]
		},
		{
			"mesh":2,
			"name":"Water",
			"scale":[
				0.8800000548362732,
				0.8800000548362732,
				0.8800000548362732
			],
			"translation":[
				0,
				3.3866381645202637,
				0
			]
		},
		{
			"mesh":3,
			"name":"DeepWater",
			"scale":[
				0.8800000548362732,
				0.8800000548362732,
				0.8800000548362732
			],
			"translation":[
				0,
				3.3866381645202637,
				0
			]
		},
		{
			"mesh":4,
			"name":"Bridge",
			"translation":[
				-39.165740966796875,
				3.479501247406006,
				-88.82757568359375
			]
		},
		{
			"mesh":5,
			"name":"Bridge.001",
			"rotation":[
				0,
				0,
				-0.00679459935054183,
				0.9999769330024719
			],
			"translation":[
				1.1265114545822144,
				6.697298526763916,
				-23.940929412841797
			]
		},
		{
			"mesh":6,
			"name":"Bridge.002",
			"translation":[
				39.30560302734375,
				21.55813980102539,
				112.2323226928711
			]
		},
		{
			"mesh":7,
			"name":"Bridge.003",
			"translation":[
				-39.165740966796875,
				33.47949981689453,
				-88.82757568359375
			]
		},
		{
			"mesh":8,
			"name":"Bridge.004",
			"rotation":[
				0,
				0,
				-0.00679459935054183,
				0.9999769330024719
			],
			"translation":[
				1.1265114545822144,
				36.69729995727539,
				-23.940929412841797
			]
		},
		{
			"mesh":9,
			"name":"Bridge.005",
			"translation":[
				39.30560302734375,
				51.55813980102539,
				112.2323226928711
			]
		},
		{
			"mesh":10,
			"name":"Fence",
			"translation":[
				-4.484025001525879,
				-2.928708553314209,
				0.9165090918540955
			]
		},
		{
			"mesh":11,
			"name":"FenceIn1",
			"translation":[
				0,
				43.016456604003906,
				0
			]
		},
		{
			"mesh":12,
			"name":"FenceIn2",
			"translation":[
				-58.91523361206055,
				25.517959594726562,
				13.434846878051758
			]
		}
	],
	"materials":[
		{
			"doubleSided":true,
			"name":"\u6750\u8d28",
			"pbrMetallicRoughness":{
				"baseColorFactor":[
					0.800000011920929,
					0.800000011920929,
					0.800000011920929,
					1
				],
				"metallicFactor":0
			}
		},
		{
			"doubleSided":true,
			"name":"\u6750\u8d28.001",
			"pbrMetallicRoughness":{
				"baseColorFactor":[
					0,
					0,
					0,
					1
				],
				"metallicFactor":0
			}
		}
	],
	"meshes":[
		{
			"name":"\u67f1\u4f53",
			"primitives":[
				{
					"attributes":{
						"POSITION":0,
						"NORMAL":1,
						"TEXCOORD_0":2
					},
					"indices":3
				}
			]
		},
		{
			"name":"\u67f1\u4f53.001",
			"primitives":[
				{
					"attributes":{
						"POSITION":4,
						"NORMAL":5,
						"TEXCOORD_0":6
					},
					"indices":7,
					"material":0
				},
				{
					"attributes":{
						"POSITION":8,
						"NORMAL":9,
						"TEXCOORD_0":10
					},
					"indices":11,
					"material":1
				}
			]
		},
		{
			"name":"\u67f1\u4f53.002",
			"primitives":[
				{
					"attributes":{
						"POSITION":12,
						"NORMAL":13,
						"TEXCOORD_0":14
					},
					"indices":15
				}
			]
		},
		{
			"name":"\u67f1\u4f53.003",
			"primitives":[
				{
					"attributes":{
						"POSITION":16,
						"NORMAL":17,
						"TEXCOORD_0":18
					},
					"indices":19
				}
			]
		},
		{
			"name":"\u7acb\u65b9\u4f53",
			"primitives":[
				{
					"attributes":{
						"POSITION":20,
						"NORMAL":21,
						"TEXCOORD_0":22
					},
					"indices":23
				}
			]
		},
		{
			"name":"\u7acb\u65b9\u4f53.001",
			"primitives":[
				{
					"attributes":{
						"POSITION":24,
						"NORMAL":25,
						"TEXCOORD_0":26
					},
					"indices":27
				}
			]
		},
		{
			"name":"\u7acb\u65b9\u4f53.002",
			"primitives":[
				{
					"attributes":{
						"POSITION":28,
						"NORMAL":29,
						"TEXCOORD_0":30
					},
					"indices":31
				}
			]
		},
		{
			"name":"\u7acb\u65b9\u4f53.006",
			"primitives":[
				{
					"attributes":{
						"POSITION":32,
						"NORMAL":33,
						"TEXCOORD_0":34
					},
					"indices":35
				}
			]
		},
		{
			"name":"\u7acb\u65b9\u4f53.007",
			"primitives":[
				{
					"attributes":{
						"POSITION":36,
						"NORMAL":37,
						"TEXCOORD_0":38
					},
					"indices":39
				}
			]
		},
		{
			"name":"\u7acb\u65b9\u4f53.008",
			"primitives":[
				{
					"attributes":{
						"POSITION":40,
						"NORMAL":41,
						"TEXCOORD_0":42
					},
					"indices":43
				}
			]
		},
		{
			"name":"\u67f1\u4f53.004",
			"primitives":[
				{
					"attributes":{
						"POSITION":44,
						"NORMAL":45
					},
					"indices":46
				}
			]
		},
		{
			"name":"\u5e73\u9762",
			"primitives":[
				{
					"attributes":{
						"POSITION":47,
						"NORMAL":48
					},
					"indices":49
				}
			]
		},
		{
			"name":"\u5e73\u9762.001",
			"primitives":[
				{
					"attributes":{
						"POSITION":50,
						"NORMAL":51
					},
					"indices":52
				}
			]
		}
	],
	"accessors":[
		{
			"bufferView":0,
			"componentType":5126,
			"count":896,
			"max":[
				156.2189483642578,
				0.0018596649169921875,
				156.2189483642578
			],
			"min":[
				-156.2189483642578,
				-99.72883605957031,
				-156.2189483642578
			],
			"type":"VEC3"
		},
		{
			"bufferView":1,
			"componentType":5126,
			"count":896,
			"type":"VEC3"
		},
		{
			"bufferView":2,
			"componentType":5126,
			"count":896,
			"type":"VEC2"
		},
		{
			"bufferView":3,
			"componentType":5123,
			"count":1044,
			"type":"SCALAR"
		},
		{
			"bufferView":4,
			"componentType":5126,
			"count":424,
			"max":[
				137.58155822753906,
				24.249095916748047,
				133.21607971191406
			],
			"min":[
				-128.61351013183594,
				-14.07009506225586,
				-134.21324157714844
			],
			"type":"VEC3"
		},
		{
			"bufferView":5,
			"componentType":5126,
			"count":424,
			"type":"VEC3"
		},
		{
			"bufferView":6,
			"componentType":5126,
			"count":424,
			"type":"VEC2"
		},
		{
			"bufferView":7,
			"componentType":5123,
			"count":696,
			"type":"SCALAR"
		},
		{
			"bufferView":8,
			"componentType":5126,
			"count":266,
			"max":[
				137.58154296875,
				24.249095916748047,
				133.21607971191406
			],
			"min":[
				-128.61349487304688,
				5.231553077697754,
				-134.21324157714844
			],
			"type":"VEC3"
		},
		{
			"bufferView":9,
			"componentType":5126,
			"count":266,
			"type":"VEC3"
		},
		{
			"bufferView":10,
			"componentType":5126,
			"count":266,
			"type":"VEC2"
		},
		{
			"bufferView":11,
			"componentType":5123,
			"count":396,
			"type":"SCALAR"
		},
		{
			"bufferView":12,
			"componentType":5126,
			"count":120,
			"max":[
				60.14217758178711,
				-6.180551528930664,
				137.3582763671875
			],
			"min":[
				-59.153038024902344,
				-11.453866958618164,
				-136.07614135742188
			],
			"type":"VEC3"
		},
		{
			"bufferView":13,
			"componentType":5126,
			"count":120,
			"type":"VEC3"
		},
		{
			"bufferView":14,
			"componentType":5126,
			"count":120,
			"type":"VEC2"
		},
		{
			"bufferView":15,
			"componentType":5123,
			"count":228,
			"type":"SCALAR"
		},
		{
			"bufferView":16,
			"componentType":5126,
			"count":120,
			"max":[
				55.92018127441406,
				-11.294843673706055,
				133.36669921875
			],
			"min":[
				-55.31681442260742,
				-16.266740798950195,
				-131.82421875
			],
			"type":"VEC3"
		},
		{
			"bufferView":17,
			"componentType":5126,
			"count":120,
			"type":"VEC3"
		},
		{
			"bufferView":18,
			"componentType":5126,
			"count":120,
			"type":"VEC2"
		},
		{
			"bufferView":19,
			"componentType":5123,
			"count":228,
			"type":"SCALAR"
		},
		{
			"bufferView":20,
			"componentType":5126,
			"count":1269,
			"max":[
				22.26415252685547,
				1.2839751243591309,
				8.863632202148438
			],
			"min":[
				-21.079360961914062,
				-6.647128105163574,
				-9.320304870605469
			],
			"type":"VEC3"
		},
		{
			"bufferView":21,
			"componentType":5126,
			"count":1269,
			"type":"VEC3"
		},
		{
			"bufferView":22,
			"componentType":5126,
			"count":1269,
			"type":"VEC2"
		},
		{
			"bufferView":23,
			"componentType":5123,
			"count":2616,
			"type":"SCALAR"
		},
		{
			"bufferView":24,
			"componentType":5126,
			"count":1272,
			"max":[
				29.997900009155273,
				4.450006008148193,
				12.603796005249023
			],
			"min":[
				-24.711923599243164,
				-9.497352600097656,
				-14.542465209960938
			],
			"type":"VEC3"
		},
		{
			"bufferView":25,
			"componentType":5126,
			"count":1272,
			"type":"VEC3"
		},
		{
			"bufferView":26,
			"componentType":5126,
			"count":1272,
			"type":"VEC2"
		},
		{
			"bufferView":27,
			"componentType":5123,
			"count":2616,
			"type":"SCALAR"
		},
		{
			"bufferView":28,
			"componentType":5126,
			"count":1272,
			"max":[
				24.396202087402344,
				1.599660873413086,
				8.649131774902344
			],
			"min":[
				-23.082672119140625,
				-6.647113800048828,
				-9.092292785644531
			],
			"type":"VEC3"
		},
		{
			"bufferView":29,
			"componentType":5126,
			"count":1272,
			"type":"VEC3"
		},
		{
			"bufferView":30,
			"componentType":5126,
			"count":1272,
			"type":"VEC2"
		},
		{
			"bufferView":31,
			"componentType":5123,
			"count":2616,
			"type":"SCALAR"
		},
		{
			"bufferView":32,
			"componentType":5126,
			"count":1220,
			"max":[
				22.26415252685547,
				1.2839751243591309,
				8.863632202148438
			],
			"min":[
				-21.079360961914062,
				-6.647128105163574,
				-9.320304870605469
			],
			"type":"VEC3"
		},
		{
			"bufferView":33,
			"componentType":5126,
			"count":1220,
			"type":"VEC3"
		},
		{
			"bufferView":34,
			"componentType":5126,
			"count":1220,
			"type":"VEC2"
		},
		{
			"bufferView":35,
			"componentType":5123,
			"count":2616,
			"type":"SCALAR"
		},
		{
			"bufferView":36,
			"componentType":5126,
			"count":1223,
			"max":[
				29.997900009155273,
				4.450006008148193,
				12.603796005249023
			],
			"min":[
				-24.711923599243164,
				-9.497352600097656,
				-14.542465209960938
			],
			"type":"VEC3"
		},
		{
			"bufferView":37,
			"componentType":5126,
			"count":1223,
			"type":"VEC3"
		},
		{
			"bufferView":38,
			"componentType":5126,
			"count":1223,
			"type":"VEC2"
		},
		{
			"bufferView":39,
			"componentType":5123,
			"count":2616,
			"type":"SCALAR"
		},
		{
			"bufferView":40,
			"componentType":5126,
			"count":1223,
			"max":[
				24.396202087402344,
				1.599660873413086,
				8.649131774902344
			],
			"min":[
				-23.082672119140625,
				-6.647113800048828,
				-9.092292785644531
			],
			"type":"VEC3"
		},
		{
			"bufferView":41,
			"componentType":5126,
			"count":1223,
			"type":"VEC3"
		},
		{
			"bufferView":42,
			"componentType":5126,
			"count":1223,
			"type":"VEC2"
		},
		{
			"bufferView":43,
			"componentType":5123,
			"count":2616,
			"type":"SCALAR"
		},
		{
			"bufferView":44,
			"componentType":5126,
			"count":17517,
			"max":[
				136.48631286621094,
				28.729061126708984,
				132.30548095703125
			],
			"min":[
				-127.52250671386719,
				4.381002426147461,
				-132.91409301757812
			],
			"type":"VEC3"
		},
		{
			"bufferView":45,
			"componentType":5126,
			"count":17517,
			"type":"VEC3"
		},
		{
			"bufferView":46,
			"componentType":5123,
			"count":45696,
			"type":"SCALAR"
		},
		{
			"bufferView":47,
			"componentType":5126,
			"count":1358,
			"max":[
				62.5250244140625,
				-16.934032440185547,
				98.7899169921875
			],
			"min":[
				15.75358772277832,
				-36.87973403930664,
				-16.80433464050293
			],
			"type":"VEC3"
		},
		{
			"bufferView":48,
			"componentType":5126,
			"count":1358,
			"type":"VEC3"
		},
		{
			"bufferView":49,
			"componentType":5123,
			"count":3384,
			"type":"SCALAR"
		},
		{
			"bufferView":50,
			"componentType":5126,
			"count":1204,
			"max":[
				78.3194808959961,
				0.5969259142875671,
				93.2557601928711
			],
			"min":[
				25.30706787109375,
				-26.553394317626953,
				2.68807053565979
			],
			"type":"VEC3"
		},
		{
			"bufferView":51,
			"componentType":5126,
			"count":1204,
			"type":"VEC3"
		},
		{
			"bufferView":52,
			"componentType":5123,
			"count":2874,
			"type":"SCALAR"
		}
	],
	"bufferViews":[
		{
			"buffer":0,
			"byteLength":10752,
			"byteOffset":0,
			"target":34962
		},
		{
			"buffer":0,
			"byteLength":10752,
			"byteOffset":10752,
			"target":34962
		},
		{
			"buffer":0,
			"byteLength":7168,
			"byteOffset":21504,
			"target":34962
		},
		{
			"buffer":0,
			"byteLength":2088,
			"byteOffset":28672,
			"target":34963
		},
		{
			"buffer":0,
			"byteLength":5088,
			"byteOffset":30760,
			"target":34962
		},
		{
			"buffer":0,
			"byteLength":5088,
			"byteOffset":35848,
			"target":34962
		},
		{
			"buffer":0,
			"byteLength":3392,
			"byteOffset":40936,
			"target":34962
		},
		{
			"buffer":0,
			"byteLength":1392,
			"byteOffset":44328,
			"target":34963
		},
		{
			"buffer":0,
			"byteLength":3192,
			"byteOffset":45720,
			"target":34962
		},
		{
			"buffer":0,
			"byteLength":3192,
			"byteOffset":48912,
			"target":34962
		},
		{
			"buffer":0,
			"byteLength":2128,
			"byteOffset":52104,
			"target":34962
		},
		{
			"buffer":0,
			"byteLength":792,
			"byteOffset":54232,
			"target":34963
		},
		{
			"buffer":0,
			"byteLength":1440,
			"byteOffset":55024,
			"target":34962
		},
		{
			"buffer":0,
			"byteLength":1440,
			"byteOffset":56464,
			"target":34962
		},
		{
			"buffer":0,
			"byteLength":960,
			"byteOffset":57904,
			"target":34962
		},
		{
			"buffer":0,
			"byteLength":456,
			"byteOffset":58864,
			"target":34963
		},
		{
			"buffer":0,
			"byteLength":1440,
			"byteOffset":59320,
			"target":34962
		},
		{
			"buffer":0,
			"byteLength":1440,
			"byteOffset":60760,
			"target":34962
		},
		{
			"buffer":0,
			"byteLength":960,
			"byteOffset":62200,
			"target":34962
		},
		{
			"buffer":0,
			"byteLength":456,
			"byteOffset":63160,
			"target":34963
		},
		{
			"buffer":0,
			"byteLength":15228,
			"byteOffset":63616,
			"target":34962
		},
		{
			"buffer":0,
			"byteLength":15228,
			"byteOffset":78844,
			"target":34962
		},
		{
			"buffer":0,
			"byteLength":10152,
			"byteOffset":94072,
			"target":34962
		},
		{
			"buffer":0,
			"byteLength":5232,
			"byteOffset":104224,
			"target":34963
		},
		{
			"buffer":0,
			"byteLength":15264,
			"byteOffset":109456,
			"target":34962
		},
		{
			"buffer":0,
			"byteLength":15264,
			"byteOffset":124720,
			"target":34962
		},
		{
			"buffer":0,
			"byteLength":10176,
			"byteOffset":139984,
			"target":34962
		},
		{
			"buffer":0,
			"byteLength":5232,
			"byteOffset":150160,
			"target":34963
		},
		{
			"buffer":0,
			"byteLength":15264,
			"byteOffset":155392,
			"target":34962
		},
		{
			"buffer":0,
			"byteLength":15264,
			"byteOffset":170656,
			"target":34962
		},
		{
			"buffer":0,
			"byteLength":10176,
			"byteOffset":185920,
			"target":34962
		},
		{
			"buffer":0,
			"byteLength":5232,
			"byteOffset":196096,
			"target":34963
		},
		{
			"buffer":0,
			"byteLength":14640,
			"byteOffset":201328,
			"target":34962
		},
		{
			"buffer":0,
			"byteLength":14640,
			"byteOffset":215968,
			"target":34962
		},
		{
			"buffer":0,
			"byteLength":9760,
			"byteOffset":230608,
			"target":34962
		},
		{
			"buffer":0,
			"byteLength":5232,
			"byteOffset":240368,
			"target":34963
		},
		{
			"buffer":0,
			"byteLength":14676,
			"byteOffset":245600,
			"target":34962
		},
		{
			"buffer":0,
			"byteLength":14676,
			"byteOffset":260276,
			"target":34962
		},
		{
			"buffer":0,
			"byteLength":9784,
			"byteOffset":274952,
			"target":34962
		},
		{
			"buffer":0,
			"byteLength":5232,
			"byteOffset":284736,
			"target":34963
		},
		{
			"buffer":0,
			"byteLength":14676,
			"byteOffset":289968,
			"target":34962
		},
		{
			"buffer":0,
			"byteLength":14676,
			"byteOffset":304644,
			"target":34962
		},
		{
			"buffer":0,
			"byteLength":9784,
			"byteOffset":319320,
			"target":34962
		},
		{
			"buffer":0,
			"byteLength":5232,
			"byteOffset":329104,
			"target":34963
		},
		{
			"buffer":0,
			"byteLength":210204,
			"byteOffset":334336,
			"target":34962
		},
		{
			"buffer":0,
			"byteLength":210204,
			"byteOffset":544540,
			"target":34962
		},
		{
			"buffer":0,
			"byteLength":91392,
			"byteOffset":754744,
			"target":34963
		},
		{
			"buffer":0,
			"byteLength":16296,
			"byteOffset":846136,
			"target":34962
		},
		{
			"buffer":0,
			"byteLength":16296,
			"byteOffset":862432,
			"target":34962
		},
		{
			"buffer":0,
			"byteLength":6768,
			"byteOffset":878728,
			"target":34963
		},
		{
			"buffer":0,
			"byteLength":14448,
			"byteOffset":885496,
			"target":34962
		},
		{
			"buffer":0,
			"byteLength":14448,
			"byteOffset":899944,
			"target":34962
		},
		{
			"buffer":0,
			"byteLength":5748,
			"byteOffset":914392,
			"target":34963
		}
	],
	"buffers":[
		{
			"byteLength":920140,
			"uri":"Island-c57f35d39166d75dd6cd2503062e9820.bin"
		}
	]
}
